# xmcd CD database file
#
# Track frame offsets:
#	150
#	12181
#	24972
#	36264
#	48962
#	60993
#	72206
#	86474
#	97444
#	110027
#	121790
#	131957
#	142909
#	154149
#	166358
#	178979
#	190688
#	203156
#	215015
#	227206
#	237302
#	248618
#	260583
#	270855
#	282261
#
# Disc length: 3887 seconds
#
# Revision: 1
# Processed by: cddbd v1.5PL3 Copyright (c) Steve Scherf et al.
# Submitted via: CDex 1.51
#
DISCID=650f2d19
DTITLE=Country Music - 100 grands succès.3
DYEAR=1900
DGENRE=Country
TTITLE0=Milton Brown. Garbadge Man Blues
TTITLE1=Farr Brothers. Kilocycle Stomp
TTITLE2=Tune Wranglers. Texas Sand
TTITLE3=Bob Wills. What's the matter with the Mill
TTITLE4=Bob Wills. Steel Guitar rag
TTITLE5=W.Lee O'Daniel. Don't Let the Deal Go Down
TTITLE6=Jimmie Davis. High Geared Daddy
TTITLE7=Crystal Spring Ramblers. Tired of Me
TTITLE8=Modern Mountaineers. You Got To Know how To Truck and Swing
TTITLE9=Shelly Lee Alley. Women, Women, Women
TTITLE10=Bob Wills. Liza Pull Down the Shades
TTITLE11=Roy Newman. Everybody's trying to be my Baby
TTITLE12=Hank Penny. it Ain't Gonna Rain no Mo'
TTITLE13=Buddy Jones. Rockin' Rollin' Mama
TTITLE14=Louise Massey. Billy Boy
TTITLE15=Cliff Brunner and His Boys. Draftboard Blues
TTITLE16=Spade Coley. Oklahoma Stomp
TTITLE17=Jimmie Widener. You Better Wake Up, Babe
TTITLE18=Boots Woodall. Rattle Snakin'Daddy
TTITLE19=Johnny Tyler. Oakie Boogie
TTITLE20=Pee Wee King. Ten Gallon Boogie
TTITLE21=Maddox Brothers and Rose. Move it On Over
TTITLE22=Gene O'Quin. Boogie Woogie Fever
TTITLE23=Tommy Duncan. There's Not a Cow in Texas
TTITLE24=Ramblin' Jimmie Dolan. Juke Box Boogie
EXTD=
EXTT0=
EXTT1=
EXTT2=
EXTT3=
EXTT4=
EXTT5=
EXTT6=
EXTT7=
EXTT8=
EXTT9=
EXTT10=
EXTT11=
EXTT12=
EXTT13=
EXTT14=
EXTT15=
EXTT16=
EXTT17=
EXTT18=
EXTT19=
EXTT20=
EXTT21=
EXTT22=
EXTT23=
EXTT24=
PLAYORDER=
